# File created by Blade
# Date/Time:  Tue Jan 27 19:18:41 2015
# Frame Rate: 120.000 fps
#------------------------------------------------------
:FULLY-SPECIFIED
:DEGREES
3244
root 2.279256 32.272385 1.241746 -2.845608 -12.223869 -0.773146
Spine 2.300187 -12.049479 -1.226782
Head 18.696097 -2.147067 -3.597173
LeftShoulder -11.003103 -2.533125 24.768894
LeftArm -6.440011 38.772684 -103.709021
LeftForeArm 7.018630 0.000000 16.390091
LeftHand 9.991133 -0.000000 -3.442995
LeftHandThumb1 -26.253704 0.000000 33.147579
RightShoulder -25.044472 -16.133972 -44.588436
RightArm -4.199560 37.849936 33.650087
RightForeArm 15.697268 -0.000000 101.890311
RightHand 28.557790 0.000000 -12.115034
RightHandThumb1 -24.326973 -0.000000 -32.862282
LeftUpLeg 13.871047 12.775458 4.667124
LeftLeg 0.035150 -0.000000 -0.000000
LeftFoot -17.895965 11.868881 -25.463365
LeftToeBase 16.903291 -0.000000 -0.000000
RightUpLeg 7.583870 3.357650 5.958910
RightLeg 1.638013 -0.000000 -0.000000
RightFoot -11.538357 -13.755815 11.932256
RightToeBase 11.771503 -0.000000 -0.000000
3245
root 2.275007 32.271326 1.250370 -2.853923 -12.206134 -0.776185
Spine 2.295045 -12.047080 -1.203061
Head 18.665888 -2.157648 -3.599763
LeftShoulder -10.997141 -2.580690 24.772954
LeftArm -6.455359 38.839367 -103.735731
LeftForeArm 6.966420 -0.000000 16.392457
LeftHand 10.100004 -0.000000 -3.424514
LeftHandThumb1 -26.253704 0.000000 33.147579
RightShoulder -25.033800 -16.068203 -44.594506
RightArm -4.829374 40.053760 33.691314
RightForeArm 16.141119 -0.000000 101.848958
RightHand 28.668836 0.000000 -12.315077
RightHandThumb1 -24.326973 -0.000000 -32.862282
LeftUpLeg 13.886147 12.747520 4.673446
LeftLeg 0.056732 -0.000000 -0.000000
LeftFoot -17.926724 11.858541 -25.477307
LeftToeBase 16.958487 -0.000000 -0.000000
RightUpLeg 7.605606 3.355469 5.971247
RightLeg 1.651745 -0.000000 -0.000000
RightFoot -11.566535 -13.773352 11.936936
RightToeBase 11.830491 -0.000000 -0.000000
3246
root 2.270247 32.271198 1.259807 -2.866385 -12.189251 -0.777799
Spine 2.270640 -12.078381 -1.195127
Head 18.697280 -2.145550 -3.575450
LeftShoulder -11.002792 -2.553732 24.787205
LeftArm -6.382458 38.882643 -103.734704
LeftForeArm 6.974263 -0.000000 16.332834
LeftHand 10.095836 -0.000000 -3.469091
LeftHandThumb1 -26.253704 0.000000 33.147579
RightShoulder -25.050408 -16.110951 -44.560204
RightArm -5.240755 42.341022 33.859221
RightForeArm 16.410277 -0.000000 101.775196
RightHand 28.650139 -0.000000 -12.473271
RightHandThumb1 -24.326973 -0.000000 -32.862282
LeftUpLeg 13.909084 12.721485 4.683619
LeftLeg 0.057899 -0.000000 -0.000000
LeftFoot -17.929288 11.873276 -25.485853
LeftToeBase 16.923035 -0.000000 -0.000000
RightUpLeg 7.636227 3.339404 5.980326
RightLeg 1.654214 -0.000000 -0.000000
RightFoot -11.573620 -13.781799 11.928677
RightToeBase 11.802705 -0.000000 -0.000000
3247
root 2.264926 32.270406 1.270426 -2.885992 -12.176552 -0.778848
Spine 2.265798 -12.068541 -1.183792
Head 18.717319 -2.094227 -3.524487
LeftShoulder -10.998445 -2.566024 24.791587
LeftArm -6.342861 38.924357 -103.727070
LeftForeArm 7.004623 -0.000000 16.329427
LeftHand 9.977861 0.000000 -3.500746
LeftHandThumb1 -26.253704 0.000000 33.147579
RightShoulder -25.052261 -16.042616 -44.579897
RightArm -5.858408 44.616649 33.874515
RightForeArm 16.557315 -0.000000 101.720563
RightHand 28.757543 -0.000000 -12.448360
RightHandThumb1 -24.326973 -0.000000 -32.862282
LeftUpLeg 13.942951 12.684746 4.697560
LeftLeg 0.063103 -0.000000 -0.000000
LeftFoot -18.017176 11.848683 -25.669113
LeftToeBase 17.133038 -0.000000 -0.000000
RightUpLeg 7.676132 3.338000 5.992714
RightLeg 1.657402 -0.000000 -0.000000
RightFoot -11.593959 -13.810889 11.917258
RightToeBase 11.785594 -0.000000 -0.000000
3248
root 2.259635 32.269529 1.279702 -2.896374 -12.160545 -0.784790
Spine 2.241104 -12.078461 -1.170830
Head 18.698780 -2.129227 -3.525810
LeftShoulder -10.984333 -2.567219 24.799753
LeftArm -6.311931 38.981724 -103.729204
LeftForeArm 6.998240 -0.000000 16.323155
LeftHand 9.983296 -0.000000 -3.447998
LeftHandThumb1 -26.253704 0.000000 33.147579
RightShoulder -25.029113 -15.864441 -44.652106
RightArm -6.566573 46.759269 33.783019
RightForeArm 16.494509 -0.000000 101.702553
RightHand 28.774116 -0.000000 -12.693350
RightHandThumb1 -24.326973 -0.000000 -32.862282
LeftUpLeg 13.955681 12.654287 4.711914
LeftLeg 0.093177 -0.000000 -0.000000
LeftFoot -18.045262 11.845728 -25.687210
LeftToeBase 17.106477 -0.000000 -0.000000
RightUpLeg 7.704438 3.322811 6.004241
RightLeg 1.651871 -0.000000 -0.000000
RightFoot -11.596000 -13.831256 11.905831
RightToeBase 11.030449 -0.000000 -0.000000
3249
root 2.254631 32.268953 1.289232 -2.907747 -12.152943 -0.790565
Spine 2.227838 -12.069583 -1.150319
Head 18.694421 -2.144609 -3.493337
LeftShoulder -10.976366 -2.582764 24.793951
LeftArm -6.293934 39.014434 -103.724234
LeftForeArm 6.923939 -0.000000 16.342155
LeftHand 10.151114 0.000000 -3.756618
LeftHandThumb1 -26.253704 0.000000 33.147579
RightShoulder -25.077233 -15.821804 -44.672717
RightArm -7.172304 48.991317 33.749595
RightForeArm 16.424174 -0.000000 101.696194
RightHand 28.768158 -0.000000 -12.837882
RightHandThumb1 -24.326973 -0.000000 -32.862282
LeftUpLeg 13.983804 12.612400 4.716657
LeftLeg 0.096375 -0.000000 -0.000000
LeftFoot -17.994943 11.908672 -25.537297
LeftToeBase 16.866797 -0.000000 -0.000000
RightUpLeg 7.732799 3.346846 6.022022
RightLeg 1.672193 -0.000000 -0.000000
RightFoot -11.634079 -13.823100 11.950012
RightToeBase 11.739759 -0.000000 -0.000000
3250
root 2.249615 32.267852 1.299660 -2.928886 -12.144184 -0.795078
Spine 2.225726 -12.069826 -1.134964
Head 18.679736 -2.149593 -3.463974
LeftShoulder -10.976081 -2.604049 24.790577
LeftArm -6.293277 39.039720 -103.730954
LeftForeArm 6.927276 -0.000000 16.364692
LeftHand 10.103187 0.000000 -3.645789
LeftHandThumb1 -26.253704 0.000000 33.147579
RightShoulder -25.119908 -16.042406 -44.506532
RightArm -7.638520 51.544349 33.728157
RightForeArm 16.235714 -0.000000 101.722526
RightHand 28.754942 -0.000000 -13.302086
RightHandThumb1 -24.326973 -0.000000 -32.862282
LeftUpLeg 14.017207 12.587727 4.730705
LeftLeg 0.110169 -0.000000 -0.000000
LeftFoot -18.010946 11.914754 -25.532594
LeftToeBase 16.860982 -0.000000 -0.000000
RightUpLeg 7.768785 3.328601 6.033018
RightLeg 1.688774 -0.000000 -0.000000
RightFoot -11.663948 -13.810856 11.954645
RightToeBase 11.827978 -0.000000 -0.000000
3251
root 2.243661 32.267257 1.311115 -2.955457 -12.136008 -0.799068
Spine 2.221211 -12.068956 -1.127441
Head 18.683749 -2.169969 -3.429413
LeftShoulder -10.974294 -2.612696 24.787718
LeftArm -6.281608 39.039407 -103.725496
LeftForeArm 6.899392 0.000000 16.387938
LeftHand 10.000975 0.000000 -3.684765
LeftHandThumb1 -26.253704 0.000000 33.147579
RightShoulder -25.136302 -15.991704 -44.506224
RightArm -8.366800 53.807697 33.536135
RightForeArm 16.179329 0.000000 101.748818
RightHand 28.721911 0.000000 -13.614142
RightHandThumb1 -24.326973 -0.000000 -32.862282
LeftUpLeg 14.059435 12.575434 4.751457
LeftLeg 0.125584 -0.000000 -0.000000
LeftFoot -18.028247 11.900710 -25.559830
LeftToeBase 16.871090 -0.000000 -0.000000
RightUpLeg 7.822312 3.335182 6.047938
RightLeg 1.680596 -0.000000 -0.000000
RightFoot -11.676656 -13.829277 11.961377
RightToeBase 11.755684 -0.000000 -0.000000
3252
root 2.237274 32.266249 1.319671 -2.961400 -12.124124 -0.801366
Spine 2.198596 -12.061870 -1.120609
Head 18.683922 -2.197825 -3.397555
LeftShoulder -10.964570 -2.634754 24.785406
LeftArm -6.270056 39.009057 -103.724702
LeftForeArm 6.901308 -0.000000 16.385135
LeftHand 10.083834 0.000000 -3.631318
LeftHandThumb1 -26.253704 0.000000 33.147579
RightShoulder -25.154362 -15.937571 -44.527309
RightArm -9.188820 56.031539 33.279182
RightForeArm 16.155925 -0.000000 101.797127
RightHand 28.732711 -0.000000 -14.145808
RightHandThumb1 -24.326973 -0.000000 -32.862282
LeftUpLeg 14.066733 12.591027 4.772808
LeftLeg 0.158760 -0.000000 -0.000000
LeftFoot -18.030849 11.868636 -25.550243
LeftToeBase 16.815860 -0.000000 -0.000000
RightUpLeg 7.843964 3.330212 6.060037
RightLeg 1.688334 -0.000000 -0.000000
RightFoot -11.690900 -13.835969 11.956945
RightToeBase 11.694529 -0.000000 -0.000000
3253
root 2.231973 32.265725 1.328242 -2.972663 -12.118856 -0.799530
Spine 2.175906 -12.069276 -1.116276
Head 18.694905 -2.196980 -3.374162
LeftShoulder -10.965710 -2.653917 24.773098
LeftArm -6.266469 38.960760 -103.721647
LeftForeArm 6.891388 -0.000000 16.378834
LeftHand 10.234697 -0.000000 -3.557999
LeftHandThumb1 -26.253704 0.000000 33.147579
RightShoulder -25.149607 -15.988428 -44.500494
RightArm -10.035123 58.374500 32.976816
RightForeArm 16.269966 -0.000000 101.861163
RightHand 28.808509 -0.000000 -14.397096
RightHandThumb1 -24.326973 -0.000000 -32.862282
LeftUpLeg 14.082161 12.553248 4.773707
LeftLeg 0.178217 -0.000000 -0.000000
LeftFoot -18.056434 11.896315 -25.560009
LeftToeBase 16.866786 -0.000000 -0.000000
RightUpLeg 7.864978 3.324656 6.065742
RightLeg 1.705441 -0.000000 -0.000000
RightFoot -11.709716 -13.826919 11.961913
RightToeBase 11.748068 -0.000000 -0.000000
3254
root 2.224905 32.264874 1.338444 -2.995880 -12.120996 -0.805330
Spine 2.168025 -12.043037 -1.113372
Head 18.706848 -2.234872 -3.336896
LeftShoulder -10.955929 -2.655902 24.768885
LeftArm -6.222992 38.935956 -103.702719
LeftForeArm 6.899767 -0.000000 16.368145
LeftHand 10.315751 -0.000000 -3.594883
LeftHandThumb1 -26.253704 0.000000 33.147579
RightShoulder -25.183614 -16.008891 -44.475754
RightArm -10.984713 60.687516 32.565025
RightForeArm 16.373761 -0.000000 101.955853
RightHand 28.621357 0.000000 -14.798764
RightHandThumb1 -24.326973 -0.000000 -32.862282
LeftUpLeg 14.116306 12.549335 4.801578
LeftLeg 0.200202 -0.000000 -0.000000
LeftFoot -18.154389 11.849671 -25.731794
LeftToeBase 17.110662 -0.000000 -0.000000
RightUpLeg 7.908587 3.331158 6.087333
RightLeg 1.708870 -0.000000 -0.000000
RightFoot -11.726372 -13.858796 11.955110
RightToeBase 11.755735 -0.000000 -0.000000
3255
root 2.218101 32.263895 1.347755 -3.006642 -12.105874 -0.803779
Spine 2.145409 -12.059431 -1.118154
Head 18.709803 -2.264242 -3.310806
LeftShoulder -10.958576 -2.682365 24.759322
LeftArm -6.267985 38.878253 -103.692550
LeftForeArm 6.906983 -0.000000 16.451764
LeftHand 10.226476 -0.000000 -3.715122
LeftHandThumb1 -26.253704 0.000000 33.147579
RightShoulder -25.193225 -15.951022 -44.485829
RightArm -12.143052 62.945310 31.962805
RightForeArm 16.502605 -0.000000 102.063599
RightHand 28.626127 -0.000000 -14.712031
RightHandThumb1 -24.326973 -0.000000 -32.862282
LeftUpLeg 14.124148 12.563449 4.818260
LeftLeg 0.244614 -0.000000 -0.000000
LeftFoot -18.094578 11.848665 -25.582154
LeftToeBase 16.908668 -0.000000 -0.000000
RightUpLeg 7.939159 3.314284 6.098334
RightLeg 1.709873 -0.000000 -0.000000
RightFoot -11.750845 -13.869253 11.939553
RightToeBase 11.786861 -0.000000 -0.000000
